<svg xmlns="http://www.w3.org/2000/svg" width="1480" height="870" viewBox="0 0 1480 870">
<defs>
<marker id="ar" viewBox="0 0 10 10" refX="9" refY="5" markerWidth="8" markerHeight="8" orient="auto-start-reverse"><path d="M0 0 L10 5 L0 10 z" fill="#333"/></marker>
<marker id="arr" viewBox="0 0 10 10" refX="9" refY="5" markerWidth="8" markerHeight="8" orient="auto-start-reverse"><path d="M0 0 L10 5 L0 10 z" fill="#d64545"/></marker>
<style>
text { font-family: -apple-system, "Segoe UI", Helvetica, Arial, sans-serif; }
.t { font-size: 17px; font-weight: 700; fill: #1f1f1f; }
.s { font-size: 13.5px; fill: #444; }
.l { font-size: 12.5px; fill: #333; }
.tag { font-size: 12px; font-weight: 700; fill: #fff; }
.lane { font-size: 13px; font-weight: 700; letter-spacing: 1.5px; fill: #777; }
.h { font-size: 24px; font-weight: 800; fill: #1f1f1f; }
</style></defs>
<rect width="1480" height="870" fill="#ffffff"/>
<text x="20" y="44" class="h">rox-dox: how a cited, clickable rox-core design doc gets built</text>
<rect x="20" y="100" width="280" height="560" rx="18" fill="#fafafa" stroke="#d0d0d0" stroke-width="1.5"/>
<text x="160.0" y="128" class="lane" text-anchor="middle">SOURCES</text>
<rect x="330" y="100" width="300" height="560" rx="18" fill="#fafafa" stroke="#d0d0d0" stroke-width="1.5"/>
<text x="480.0" y="128" class="lane" text-anchor="middle">AUTHORING · Devin + code</text>
<rect x="660" y="100" width="400" height="740" rx="18" fill="#fafafa" stroke="#d0d0d0" stroke-width="1.5"/>
<text x="860.0" y="128" class="lane" text-anchor="middle">BUILD · rox-dox CLI</text>
<rect x="1090" y="100" width="370" height="560" rx="18" fill="#fafafa" stroke="#d0d0d0" stroke-width="1.5"/>
<text x="1275.0" y="128" class="lane" text-anchor="middle">OUTPUT</text>
<rect x="40" y="145" width="240" height="90" rx="14" fill="#fff4e5" stroke="#e08a1e" stroke-width="2.2"/>
<text x="56" y="173" class="t">Notion</text>
<text x="56" y="195" class="s">related design docs</text>
<text x="56" y="214" class="s">read via Notion MCP</text>
<rect x="40" y="285" width="240" height="110" rx="14" fill="#fff4e5" stroke="#e08a1e" stroke-width="2.2"/>
<text x="56" y="313" class="t">rox-core repo</text>
<text x="56" y="335" class="s">pinned commit</text>
<text x="56" y="354" class="s">all ~3,051 folders</text>
<text x="56" y="373" class="s">backend · web · k8s · skills</text>
<rect x="40" y="460" width="240" height="80" rx="14" fill="#f5f5f5" stroke="#9a9a9a" stroke-width="2.2" stroke-dasharray="7 5"/>
<text x="56" y="488" class="t">Slack</text>
<text x="56" y="510" class="s">placeholder slot only</text>
<rect x="224.0" y="470" width="46.0" height="22" rx="11" fill="#9a9a9a"/>
<text x="247.0" y="485.5" class="tag" text-anchor="middle">later</text>
<rect x="350" y="145" width="260" height="120" rx="14" fill="#e8f0fe" stroke="#3b6fd8" stroke-width="2.2"/>
<text x="366" y="173" class="t">generate-rox-docs skill</text>
<text x="366" y="195" class="s">.agents/skills/ in rox-dox</text>
<text x="366" y="214" class="s">one child session per</text>
<text x="366" y="233" class="s">top-level folder</text>
<rect x="576.2" y="155" width="23.8" height="22" rx="11" fill="#3b6fd8"/>
<text x="588.1" y="170.5" class="tag" text-anchor="middle">T6</text>
<rect x="350" y="315" width="260" height="120" rx="14" fill="#e7f6ec" stroke="#2f9e5b" stroke-width="2.2"/>
<text x="366" y="343" class="t">Page models</text>
<text x="366" y="365" class="s">pages/**/*.json</text>
<text x="366" y="384" class="s">TLDR · nodes · edges ·</text>
<text x="366" y="403" class="s">steps · states · Notion</text>
<text x="366" y="422" class="s">every item has a source</text>
<rect x="576.2" y="325" width="23.8" height="22" rx="11" fill="#2f9e5b"/>
<text x="588.1" y="340.5" class="tag" text-anchor="middle">T1</text>
<rect x="350" y="490" width="260" height="100" rx="14" fill="#e8f0fe" stroke="#3b6fd8" stroke-width="2.2"/>
<text x="366" y="518" class="t">Schema extractor</text>
<text x="366" y="540" class="s">parses SQLAlchemy models</text>
<text x="366" y="559" class="s">all tables, no box cap</text>
<rect x="576.2" y="500" width="23.8" height="22" rx="11" fill="#3b6fd8"/>
<text x="588.1" y="515.5" class="tag" text-anchor="middle">T2</text>
<rect x="680" y="145" width="360" height="100" rx="14" fill="#e7f6ec" stroke="#2f9e5b" stroke-width="2.2"/>
<text x="696" y="173" class="t">Load + citation check</text>
<text x="696" y="195" class="s">Pydantic model · git show @ commit</text>
<text x="696" y="214" class="s">missing / stale source → fail</text>
<rect x="961.8" y="155" width="68.2" height="22" rx="11" fill="#2f9e5b"/>
<text x="995.9" y="170.5" class="tag" text-anchor="middle">T1 built</text>
<rect x="680" y="290" width="360" height="90" rx="14" fill="#e8f0fe" stroke="#3b6fd8" stroke-width="2.2"/>
<text x="696" y="318" class="t">Page tree</text>
<text x="696" y="340" class="s">parents · children · breadcrumbs</text>
<text x="696" y="359" class="s">left nav with current page</text>
<rect x="1006.2" y="300" width="23.8" height="22" rx="11" fill="#3b6fd8"/>
<text x="1018.1" y="315.5" class="tag" text-anchor="middle">T3</text>
<rect x="680" y="425" width="360" height="90" rx="14" fill="#e8f0fe" stroke="#3b6fd8" stroke-width="2.2"/>
<text x="696" y="453" class="t">Diagram renderer</text>
<text x="696" y="475" class="s">PlantUML (Smetana) → inline SVG</text>
<text x="696" y="494" class="s">block · schema · sequence · state</text>
<rect x="1006.2" y="435" width="23.8" height="22" rx="11" fill="#3b6fd8"/>
<text x="1018.1" y="450.5" class="tag" text-anchor="middle">T2</text>
<rect x="680" y="560" width="360" height="90" rx="14" fill="#e8f0fe" stroke="#3b6fd8" stroke-width="2.2"/>
<text x="696" y="588" class="t">Page template</text>
<text x="696" y="610" class="s">TLDR (recap) · TOC · diagrams ·</text>
<text x="696" y="629" class="s">related links · inline CSS</text>
<rect x="1006.2" y="570" width="23.8" height="22" rx="11" fill="#3b6fd8"/>
<text x="1018.1" y="585.5" class="tag" text-anchor="middle">T2</text>
<rect x="680" y="700" width="360" height="90" rx="14" fill="#e8f0fe" stroke="#3b6fd8" stroke-width="2.2"/>
<text x="696" y="728" class="t">Context panel</text>
<text x="696" y="750" class="s">Notion: title · link · date ·</text>
<text x="696" y="769" class="s">excerpt, then Slack slot</text>
<rect x="1006.2" y="710" width="23.8" height="22" rx="11" fill="#3b6fd8"/>
<text x="1018.1" y="725.5" class="tag" text-anchor="middle">T4</text>
<rect x="1110" y="145" width="330" height="90" rx="14" fill="#fdecec" stroke="#d64545" stroke-width="2.2"/>
<text x="1126" y="173" class="t">Build failure</text>
<text x="1126" y="195" class="s">names element + file:lines</text>
<text x="1126" y="214" class="s">nothing is written</text>
<rect x="1110" y="300" width="330" height="110" rx="14" fill="#f3e8fd" stroke="#8b4fd1" stroke-width="2.2"/>
<text x="1126" y="328" class="t">site/**/*.html</text>
<text x="1126" y="350" class="s">one self-contained page per</text>
<text x="1126" y="369" class="s">module · works offline</text>
<text x="1126" y="388" class="s">committed to rox-dox</text>
<rect x="1406.2" y="310" width="23.8" height="22" rx="11" fill="#8b4fd1"/>
<text x="1418.1" y="325.5" class="tag" text-anchor="middle">T5</text>
<rect x="1110" y="480" width="330" height="100" rx="14" fill="#f3e8fd" stroke="#8b4fd1" stroke-width="2.2"/>
<text x="1126" y="508" class="t">Marcus</text>
<text x="1126" y="530" class="s">opens a local clone in</text>
<text x="1126" y="549" class="s">VS Code / Cursor, clicks</text>
<text x="1126" y="568" class="s">root → module → leaf</text>
<path d="M 280 190 L 350 190" fill="none" stroke="#333" stroke-width="2" marker-end="url(#ar)"/>
<rect x="286.4" y="158" width="57.2" height="22" rx="6" fill="#fff" stroke="#ddd"/>
<text x="315" y="174" class="l" text-anchor="middle">search</text>
<path d="M 280 310 L 315 310 L 315 235 L 350 235" fill="none" stroke="#333" stroke-width="2" marker-end="url(#ar)"/>
<rect x="272.0" y="260" width="86.0" height="22" rx="6" fill="#fff" stroke="#ddd"/>
<text x="315" y="276" class="l" text-anchor="middle">reads code</text>
<path d="M 280 360 L 330 360 L 330 540 L 350 540" fill="none" stroke="#333" stroke-width="2" marker-end="url(#ar)"/>
<rect x="283.4" y="443" width="93.2" height="22" rx="6" fill="#fff" stroke="#ddd"/>
<text x="330" y="459" class="l" text-anchor="middle">models/*.py</text>
<path d="M 480 265 L 480 315" fill="none" stroke="#333" stroke-width="2" marker-end="url(#ar)"/>
<rect x="433.4" y="278" width="93.2" height="22" rx="6" fill="#fff" stroke="#ddd"/>
<text x="480" y="294" class="l" text-anchor="middle">writes JSON</text>
<path d="M 610 375 L 645 375 L 645 195 L 680 195" fill="none" stroke="#333" stroke-width="2" marker-end="url(#ar)"/>
<rect x="623.6" y="273" width="42.8" height="22" rx="6" fill="#fff" stroke="#ddd"/>
<text x="645" y="289" class="l" text-anchor="middle">load</text>
<path d="M 1000 145 L 1000 84 L 30 84 L 30 340 L 40 340" fill="none" stroke="#333" stroke-width="2" stroke-dasharray="6 5" marker-end="url(#ar)"/>
<rect x="306.2" y="72" width="287.6" height="22" rx="6" fill="#fff" stroke="#ddd"/>
<text x="450" y="88" class="l" text-anchor="middle">git show: file + lines exist at commit</text>
<path d="M 1040 190 L 1110 190" fill="none" stroke="#d64545" stroke-width="2" marker-end="url(#arr)"/>
<rect x="1046.4" y="158" width="57.2" height="22" rx="6" fill="#fff" stroke="#ddd"/>
<text x="1075" y="174" class="l" text-anchor="middle">exit 1</text>
<path d="M 860 245 L 860 290" fill="none" stroke="#333" stroke-width="2" marker-end="url(#ar)"/>
<rect x="868.4" y="255" width="93.2" height="22" rx="6" fill="#fff" stroke="#ddd"/>
<text x="915" y="271" class="l" text-anchor="middle">valid pages</text>
<path d="M 860 380 L 860 425" fill="none" stroke="#333" stroke-width="2" marker-end="url(#ar)"/>
<path d="M 610 540 L 645 540 L 645 470 L 680 470" fill="none" stroke="#333" stroke-width="2" marker-end="url(#ar)"/>
<rect x="616.4" y="493" width="57.2" height="22" rx="6" fill="#fff" stroke="#ddd"/>
<text x="645" y="509" class="l" text-anchor="middle">tables</text>
<path d="M 860 515 L 860 560" fill="none" stroke="#333" stroke-width="2" marker-end="url(#ar)"/>
<path d="M 1040 745 L 1068 745 L 1068 625 L 1040 625" fill="none" stroke="#333" stroke-width="2" marker-end="url(#ar)"/>
<path d="M 1040 335 L 1110 335" fill="none" stroke="#333" stroke-width="2" marker-end="url(#ar)"/>
<rect x="1039.2" y="303" width="71.6" height="22" rx="6" fill="#fff" stroke="#ddd"/>
<text x="1075" y="319" class="l" text-anchor="middle">left nav</text>
<path d="M 1040 595 L 1085 595 L 1085 385 L 1110 385" fill="none" stroke="#333" stroke-width="2" marker-end="url(#ar)"/>
<rect x="1038.4" y="435" width="93.2" height="22" rx="6" fill="#fff" stroke="#ddd"/>
<text x="1085" y="451" class="l" text-anchor="middle">writes HTML</text>
<path d="M 1300 410 L 1300 480" fill="none" stroke="#333" stroke-width="2" marker-end="url(#ar)"/>
<rect x="1305.0" y="435" width="50.0" height="22" rx="6" fill="#fff" stroke="#ddd"/>
<text x="1330" y="451" class="l" text-anchor="middle">click</text>
<text x="1110" y="700" class="lane">LEGEND</text>
<rect x="1110" y="716" width="26" height="20" rx="5" fill="#e7f6ec" stroke="#2f9e5b" stroke-width="2"/>
<text x="1146" y="731" class="s">built (PR 4)</text>
<rect x="1110" y="746" width="26" height="20" rx="5" fill="#e8f0fe" stroke="#3b6fd8" stroke-width="2"/>
<text x="1146" y="761" class="s">planned · Tn = TASKS.md task</text>
<rect x="1110" y="776" width="26" height="20" rx="5" fill="#fff4e5" stroke="#e08a1e" stroke-width="2"/>
<text x="1146" y="791" class="s">external source</text>
<rect x="1110" y="806" width="26" height="20" rx="5" fill="#f5f5f5" stroke="#9a9a9a" stroke-width="2" stroke-dasharray="5 4"/>
<text x="1146" y="821" class="s">later</text>
</svg>